<svg width="412" height="259" viewBox="0 0 412 259" fill="none" xmlns="http://www.w3.org/2000/svg">
<path d="M24.0503 224.954C57.9012 209.447 62.2634 211.188 89.827 179.93C111.655 155.177 135.359 115.261 151.383 86.3656C161.434 68.2413 170.605 50.0972 175.653 30.086C177.844 21.4002 182.337 -4.90115 182.337 4.05671C182.337 11.5915 180.387 19.6397 178.995 26.9203C173.05 58.0107 167.139 88.804 165.101 120.485C163.133 151.077 163.846 181.624 169.674 211.764C171.121 219.249 173.055 226.633 174.598 234.099C175.198 237.003 176.003 245.574 176.797 242.717C186.076 209.31 177.812 166.126 160.001 137.369C151.353 123.407 139.467 112.219 122.188 112.219C106.801 112.219 87.9989 122.833 82.2644 137.897C70.044 169.998 167.462 175.657 185.502 175.885C212.024 176.221 239.373 171.67 258.314 151.615C277.117 131.706 287.943 103.141 292.697 76.5167C295.212 62.432 298.64 34.3074 285.311 23.7546C271.821 13.0751 247.984 74.5357 246.179 80.1221C229.179 132.715 237.097 187.231 266.58 233.748C268.567 236.883 272.696 241.894 270.273 234.627C265.097 219.098 249.339 205.791 237.737 195.407C209.394 170.04 177.362 148.792 144.7 129.455C109.321 108.509 73.691 91.6026 33.3716 83.024C27.2311 81.7175 14.9407 79.2644 7.95782 78.3633C0.442484 77.3936 -1.47704 77.0185 8.13369 83.5516C77.4069 130.642 158.109 164.305 235.099 196.111C286.749 217.449 340.721 240.007 394.968 254.501C400.2 255.899 404.966 256.611 410.269 256.611" stroke="black" stroke-width="3" stroke-linecap="round"/>
</svg>
